<?xml version="1.0" encoding="UTF-8" standalone="no"?>
<!DOCTYPE svg PUBLIC "-//W3C//DTD SVG 1.1//EN" "http://www.w3.org/Graphics/SVG/1.1/DTD/svg11.dtd">
<svg xmlns="http://www.w3.org/2000/svg" version="1.1" viewBox="0.00 0.00 1024.00 1024.00">
<path fill="#111331" d="
  M 0.00 0.00
  L 1024.00 0.00
  L 1024.00 1024.00
  L 0.00 1024.00
  L 0.00 0.00
  Z
  M 55.90 966.31
  Q 55.92 965.67 56.17 965.08
  Q 59.55 957.20 62.76 949.59
  A 1.12 1.12 0.0 0 0 61.74 948.03
  L 49.03 947.98
  A 2.02 2.01 11.4 0 0 47.17 949.21
  L 35.02 977.92
  A 2.05 2.04 -78.5 0 0 36.90 980.77
  L 56.38 980.77
  A 1.12 1.11 -0.0 0 1 57.50 981.88
  L 57.53 987.92
  A 0.99 0.98 8.4 0 0 58.24 988.86
  Q 59.55 989.24 60.08 988.02
  Q 64.07 978.89 68.45 968.87
  A 0.99 0.98 -78.2 0 0 67.55 967.49
  L 57.04 967.49
  A 1.15 1.14 1.2 0 1 55.90 966.31
  Z
  M 79.24 961.38
  A 0.62 0.62 0.0 0 1 79.77 962.32
  Q 75.60 969.16 70.48 977.27
  Q 69.70 978.51 70.24 979.83
  Q 70.46 980.37 71.03 980.46
  Q 72.25 980.66 73.58 980.71
  C 85.07 981.06 97.98 976.18 98.60 962.68
  C 98.88 956.49 96.15 952.37 90.88 949.36
  Q 88.24 947.86 82.46 947.91
  Q 77.71 947.95 72.75 948.04
  A 2.59 2.56 -78.4 0 0 70.45 949.57
  L 66.25 959.02
  A 1.67 1.67 0.0 0 0 67.78 961.37
  L 79.24 961.38
  Z
  M 207.7196 953.5614
  A 3.68 3.08 0.8 0 0 204.0830 950.4303
  A 3.68 3.08 0.8 0 0 200.3604 953.4586
  A 3.68 3.08 0.8 0 0 203.9970 956.5897
  A 3.68 3.08 0.8 0 0 207.7196 953.5614
  Z
  M 268.95 956.36
  C 272.80 955.10 270.13 949.25 265.88 950.90
  Q 262.66 952.14 264.06 955.02
  A 1.72 1.72 0.0 0 0 264.76 955.78
  L 265.35 956.13
  Q 266.00 956.51 265.31 956.79
  C 263.80 957.41 264.29 958.82 264.27 960.11
  Q 264.16 966.02 264.30 971.67
  Q 264.33 972.55 265.20 972.53
  L 269.69 972.41
  A 0.85 0.84 89.3 0 0 270.51 971.56
  L 270.53 957.97
  Q 270.53 957.39 269.96 957.28
  L 268.99 957.09
  Q 267.57 956.81 268.95 956.36
  Z
  M 226.02 968.54
  Q 224.62 965.04 227.63 961.75
  A 1.76 1.73 72.9 0 0 228.07 960.90
  Q 228.40 959.23 228.25 957.51
  Q 228.20 957.01 228.39 956.55
  Q 229.32 954.27 228.76 951.95
  Q 228.63 951.39 228.06 951.35
  Q 222.60 950.94 221.00 954.74
  Q 220.36 956.28 219.50 957.55
  Q 218.31 959.31 218.89 961.49
  Q 219.01 961.98 219.43 962.26
  Q 221.25 963.45 221.08 966.07
  Q 220.91 968.81 220.73 971.32
  Q 220.62 972.78 222.08 972.76
  L 225.72 972.71
  Q 226.59 972.70 226.62 971.84
  Q 226.67 970.16 226.02 968.54
  Z
  M 209.51 962.62
  A 1.19 1.18 17.7 0 1 209.98 963.52
  L 210.23 971.14
  Q 210.28 972.74 211.89 972.73
  L 214.46 972.72
  Q 216.04 972.71 215.80 971.14
  Q 215.18 966.98 216.39 963.26
  Q 216.53 962.82 216.99 962.70
  L 218.08 962.40
  Q 218.65 962.25 218.54 961.67
  L 217.73 957.61
  Q 217.63 957.13 217.84 956.68
  Q 218.81 954.56 218.33 952.01
  Q 218.24 951.50 217.72 951.44
  Q 211.46 950.70 210.05 956.19
  C 209.89 956.81 209.49 957.21 208.92 957.45
  Q 208.38 957.67 208.38 958.25
  L 208.38 961.21
  A 1.12 1.10 -72.0 0 0 208.82 962.10
  L 209.51 962.62
  Z
  M 181.00 954.73
  L 181.06 971.57
  A 1.19 1.19 0.0 0 0 182.25 972.76
  L 189.14 972.73
  A 10.12 9.14 -0.2 0 0 199.23 963.56
  L 199.23 962.62
  A 10.12 9.14 -0.2 0 0 189.08 953.51
  L 182.19 953.54
  A 1.19 1.19 0.0 0 0 181.00 954.73
  Z
  M 112.11 966.41
  Q 111.99 966.38 111.88 966.30
  A 0.02 0.02 0.0 0 0 111.85 966.31
  Q 111.40 969.28 111.66 971.64
  A 0.85 0.84 84.0 0 0 112.57 972.38
  Q 116.69 972.04 121.44 972.73
  A 1.15 1.15 0.0 0 0 122.73 971.37
  L 122.36 969.46
  A 1.13 1.12 84.1 0 0 121.25 968.55
  Q 119.72 968.57 118.30 969.13
  A 1.51 1.51 0.0 0 1 116.27 967.99
  Q 115.33 962.90 115.65 957.14
  Q 115.67 956.71 115.89 956.33
  C 116.44 955.38 116.09 954.19 114.96 953.85
  Q 113.42 953.38 112.30 954.11
  Q 111.86 954.40 111.92 954.92
  Q 112.17 956.82 112.03 958.66
  Q 111.88 960.50 112.17 962.28
  Q 112.49 964.24 112.38 966.22
  Q 112.36 966.48 112.11 966.41
  Z
  M 151.04 971.81
  Q 151.09 973.11 150.13 973.88
  A 1.65 1.64 41.2 0 1 148.26 974.00
  Q 145.49 972.33 141.81 973.24
  A 0.79 0.79 0.0 0 0 141.22 974.10
  C 141.64 977.46 145.10 979.32 148.22 979.59
  C 155.76 980.24 157.68 975.48 157.47 968.70
  Q 157.31 963.63 157.40 958.26
  Q 157.42 957.39 156.56 957.25
  Q 153.29 956.73 150.80 957.75
  Q 150.38 957.93 149.95 957.78
  C 145.34 956.24 141.29 958.04 140.83 962.89
  C 140.33 968.21 141.52 972.67 148.01 972.34
  C 148.95 972.29 149.56 971.79 150.36 971.40
  Q 151.01 971.08 151.04 971.81
  Z
  M 207.2214 958.0530
  A 0.99 0.99 0.0 0 0 206.2228 957.0717
  L 201.9630 957.1089
  A 0.99 0.99 0.0 0 0 200.9817 958.1075
  L 201.0986 971.5070
  A 0.99 0.99 0.0 0 0 202.0972 972.4883
  L 206.3570 972.4511
  A 0.99 0.99 0.0 0 0 207.3383 971.4525
  L 207.2214 958.0530
  Z
  M 235.95 959.12
  Q 236.37 956.92 234.14 957.06
  L 231.77 957.22
  Q 230.03 957.33 230.21 959.07
  Q 230.61 962.98 230.30 966.74
  C 229.91 971.50 234.76 974.35 238.64 971.59
  Q 239.80 970.76 240.54 971.98
  A 1.15 1.14 -16.2 0 0 241.53 972.52
  L 245.18 972.43
  A 1.10 1.10 0.0 0 0 246.25 971.33
  L 246.25 958.44
  Q 246.25 957.13 244.94 957.15
  L 241.74 957.17
  Q 240.17 957.18 240.22 958.76
  L 240.45 965.29
  A 2.03 2.02 -7.2 0 1 238.85 967.34
  C 234.48 968.30 235.49 961.49 235.95 959.12
  Z
  M 255.66 967.96
  Q 254.46 968.07 253.70 967.29
  Q 253.31 966.90 252.75 966.91
  L 248.79 966.98
  Q 248.24 966.99 248.23 967.54
  C 248.11 972.65 255.36 973.26 258.90 972.15
  C 262.78 970.93 264.22 966.11 260.11 963.85
  C 259.67 963.61 259.08 963.51 258.60 963.31
  Q 257.68 962.92 258.68 962.89
  L 261.49 962.80
  Q 262.48 962.77 262.23 961.81
  C 260.95 956.99 255.48 956.12 251.44 957.86
  C 248.24 959.24 247.14 964.08 250.88 965.80
  Q 252.91 966.74 255.37 966.88
  Q 255.79 966.90 256.01 967.29
  Q 256.37 967.90 255.66 967.96
  Z
  M 126.2605 970.6300
  A 7.99 7.81 135.2 0 0 137.4332 970.5417
  A 7.99 7.81 135.2 0 0 137.5995 959.3700
  A 7.99 7.81 135.2 0 0 126.4268 959.4583
  A 7.99 7.81 135.2 0 0 126.2605 970.6300
  Z
  M 174.7268 964.0103
  A 7.02 7.02 0.0 0 0 167.5136 957.1890
  L 165.7942 957.2370
  A 7.02 7.02 0.0 0 0 158.9730 964.4503
  L 159.0132 965.8897
  A 7.02 7.02 0.0 0 0 166.2264 972.7110
  L 167.9458 972.6630
  A 7.02 7.02 0.0 0 0 174.7670 965.4497
  L 174.7268 964.0103
  Z
  M 287.78 964.92
  A 7.88 7.88 0.0 0 0 279.90 957.04
  A 7.88 7.88 0.0 0 0 272.02 964.92
  A 7.88 7.88 0.0 0 0 279.90 972.80
  A 7.88 7.88 0.0 0 0 287.78 964.92
  Z
  M 296.02 962.05
  Q 297.68 961.21 299.76 961.48
  Q 300.26 961.55 300.43 962.01
  C 301.31 964.45 301.24 967.47 300.92 970.03
  Q 300.67 972.03 302.69 972.06
  L 303.65 972.08
  Q 305.52 972.11 305.45 970.24
  Q 305.31 966.57 305.41 962.59
  C 305.47 960.42 304.26 958.48 302.11 958.00
  C 299.44 957.41 297.88 959.87 295.10 958.19
  Q 293.42 957.18 291.08 957.47
  Q 290.63 957.53 290.56 957.97
  Q 290.05 961.31 290.78 964.50
  Q 291.14 966.05 290.64 970.99
  Q 290.48 972.57 292.07 972.55
  L 293.93 972.52
  Q 295.53 972.50 295.40 970.91
  Q 295.08 967.03 295.39 963.00
  A 1.17 1.17 0.0 0 1 296.02 962.05
  Z
  M 317.41 971.40
  Q 319.70 972.28 321.22 972.17
  Q 324.66 971.93 325.99 968.41
  A 0.55 0.55 0.0 0 0 325.61 967.68
  Q 322.86 966.98 320.55 968.04
  Q 319.99 968.29 319.53 967.89
  Q 317.91 966.49 319.37 964.77
  A 1.95 1.95 0.0 0 1 321.70 964.27
  Q 323.46 965.11 325.28 965.17
  Q 326.01 965.20 325.79 964.50
  C 324.87 961.54 321.03 960.37 318.41 961.07
  Q 315.82 961.77 315.26 963.98
  Q 314.54 966.85 315.26 969.26
  Q 315.71 970.74 317.41 971.40
  Z
  M 339.2284 966.3420
  A 4.62 4.62 0.0 0 0 334.9420 961.4110
  L 332.4082 961.2338
  A 4.62 4.62 0.0 0 0 327.4771 965.5203
  L 327.4116 966.4580
  A 4.62 4.62 0.0 0 0 331.6980 971.3890
  L 334.2318 971.5662
  A 4.62 4.62 0.0 0 0 339.1629 967.2797
  L 339.2284 966.3420
  Z
  M 358.31 962.70
  Q 359.34 966.48 358.58 970.23
  Q 358.47 970.78 358.76 971.28
  Q 359.13 971.91 360.02 971.72
  A 1.16 1.16 0.0 0 0 360.91 970.28
  Q 360.12 967.39 360.37 963.95
  A 1.86 1.83 29.6 0 0 360.04 962.78
  Q 359.08 961.43 357.56 961.67
  Q 356.84 961.78 357.30 962.35
  Q 357.53 962.64 357.87 962.49
  Q 358.21 962.34 358.31 962.70
  Z
  M 350.60 964.06
  Q 350.51 964.47 350.96 964.60
  Q 351.45 964.74 351.44 965.25
  L 351.32 970.80
  Q 351.31 971.43 351.93 971.48
  L 352.23 971.51
  A 0.37 0.36 0.7 0 0 352.63 971.13
  L 352.35 965.07
  Q 352.33 964.71 352.67 964.58
  L 356.51 963.02
  Q 356.69 962.95 356.64 962.75
  L 356.53 962.31
  Q 356.47 962.06 356.23 962.15
  C 355.30 962.50 354.19 963.32 353.30 963.44
  Q 352.66 963.52 352.15 963.17
  C 350.51 962.09 347.69 962.23 345.85 962.69
  Q 345.55 962.77 345.62 963.07
  L 345.73 963.50
  Q 345.78 963.71 346.00 963.69
  L 349.98 963.35
  Q 350.78 963.28 350.60 964.06
  Z
  M 312.3647 971.3343
  A 1.46 1.46 0.0 0 0 312.3034 969.2705
  L 311.4592 968.4750
  A 1.46 1.46 0.0 0 0 309.3954 968.5362
  L 308.9153 969.0457
  A 1.46 1.46 0.0 0 0 308.9766 971.1095
  L 309.8208 971.9050
  A 1.46 1.46 0.0 0 0 311.8846 971.8438
  L 312.3647 971.3343
  Z"
/>
<g stroke-width="2.00" fill="none" stroke-linecap="butt">
<path stroke="#b6ddf3" d="
  M 581.88 408.71
  L 581.97 410.90
  Q 582.00 411.42 582.49 411.60
  Q 584.60 412.37 586.50 412.25
  Q 599.45 411.45 611.09 412.32"
/>
<path stroke="#416a8f" d="
  M 611.09 412.32
  C 610.34 415.55 608.60 418.87 608.58 421.83
  C 608.49 433.65 622.40 438.12 631.99 436.29
  C 646.42 433.54 655.05 419.85 657.90 405.92
  Q 661.21 389.75 653.77 373.01
  Q 648.86 361.96 639.76 352.49
  Q 617.85 329.69 586.22 324.20
  Q 572.49 321.82 563.61 321.82
  Q 515.37 321.85 460.58 321.72
  Q 447.09 321.69 438.25 322.51
  Q 416.71 324.51 398.80 336.16
  C 383.28 346.26 372.87 360.01 365.82 377.43
  Q 361.57 387.90 361.04 401.51
  Q 360.23 422.20 367.32 439.76"
/>
<path stroke="#b6ddf3" d="
  M 367.32 439.76
  Q 366.36 440.64 365.67 441.69
  Q 364.93 442.82 362.54 442.48
  Q 362.05 442.41 361.61 442.64
  Q 361.23 442.83 360.75 442.83
  Q 351.21 442.79 344.79 442.24"
/>
<path stroke="#b6ddf3" d="
  M 618.29 665.13
  Q 617.40 665.19 617.80 664.05
  Q 618.10 663.18 618.46 662.33
  Q 618.84 661.45 618.89 660.57
  Q 619.02 658.17 619.17 655.65
  A 0.99 0.98 -64.2 0 0 618.92 654.92
  L 617.25 653.02
  Q 617.06 652.81 616.79 652.72
  Q 614.09 651.92 612.04 650.70
  Q 609.82 649.39 607.55 648.28
  Q 604.75 646.90 602.02 645.46
  Q 601.41 645.13 600.86 645.55
  Q 600.69 645.67 600.50 645.67
  Q 599.77 645.65 599.78 644.92
  L 599.90 639.48"
/>
<path stroke="#b6ddf3" d="
  M 683.29 638.76
  Q 679.68 638.97 676.04 638.35
  Q 675.51 638.26 675.00 638.06
  Q 674.41 637.84 673.95 637.78
  Q 668.49 637.12 664.79 634.66"
/>
<path stroke="#878795" d="
  M 611.09 412.32
  Q 614.77 407.09 613.49 402.02
  Q 610.92 391.86 601.44 381.73
  C 587.64 366.99 568.43 361.86 548.24 362.01
  C 527.19 362.17 506.54 362.48 485.74 362.02
  Q 468.86 361.64 456.00 361.82
  C 438.58 362.05 421.84 369.86 412.11 384.48
  Q 408.15 390.43 406.62 396.21
  C 400.89 417.88 409.34 438.78 427.56 451.30
  Q 437.29 457.98 451.41 464.61
  Q 505.30 489.91 562.10 515.87
  C 575.53 522.00 589.68 528.96 601.84 535.68
  C 631.60 552.15 654.40 580.68 662.47 614.01
  Q 664.74 623.36 664.79 634.66"
/>
<path stroke="#416a8f" d="
  M 664.79 634.66
  Q 665.84 671.23 644.96 699.74
  Q 630.79 719.09 610.25 730.03
  Q 590.87 740.35 567.52 742.88
  Q 553.77 744.37 545.50 744.31
  Q 489.90 743.93 451.00 744.18
  Q 429.88 744.31 410.56 738.79"
/>
<path stroke="#416a8f" d="
  M 410.56 738.79
  Q 408.44 737.77 406.28 736.96
  C 387.85 730.03 370.14 715.84 365.04 696.26
  C 360.87 680.29 366.04 664.10 380.48 655.32
  Q 387.71 650.93 396.86 652.17
  C 406.85 653.52 412.68 661.04 413.23 670.84
  Q 413.47 675.02 414.16 679.08
  C 416.78 694.26 435.21 703.84 449.00 705.77
  Q 455.03 706.61 469.02 706.28"
/>
<path stroke="#416a8f" d="
  M 469.02 706.28
  Q 506.99 706.42 545.00 706.23
  Q 557.11 706.17 565.51 704.74
  C 587.81 700.94 608.61 686.21 618.29 665.13"
/>
<path stroke="#878795" d="
  M 618.29 665.13
  C 632.21 637.30 622.92 605.64 601.18 584.98
  C 590.73 575.04 577.48 567.39 563.92 561.07
  C 541.36 550.56 519.47 540.01 497.21 530.03
  Q 466.57 516.30 435.95 502.44
  C 424.55 497.28 413.47 491.78 403.23 485.05
  C 386.68 474.18 375.42 457.63 367.32 439.76"
/>
<path stroke="#70c0ed" d="
  M 452.77 678.55
  Q 453.00 680.16 455.29 679.71
  Q 455.64 679.64 455.75 679.98
  Q 455.79 680.12 455.75 680.27
  Q 455.71 680.45 455.54 680.48
  Q 455.47 680.49 455.39 680.48
  Q 454.65 680.46 455.33 680.76
  Q 458.80 682.32 458.59 686.30
  Q 458.57 686.75 458.84 687.12
  Q 460.52 689.39 460.97 692.04
  Q 461.46 694.92 462.42 697.89
  Q 462.89 699.31 462.17 700.82
  Q 461.95 701.29 462.36 701.61
  Q 463.11 702.20 462.96 703.30
  Q 462.89 703.84 462.43 703.53
  Q 462.10 703.29 461.97 704.01
  A 1.15 1.14 -80.6 0 0 462.93 705.36
  L 469.02 706.28"
/>
<path stroke="#70c0ed" d="
  M 410.56 738.79
  Q 411.70 739.72 412.33 741.09
  Q 412.50 741.45 412.13 741.62
  Q 411.99 741.68 411.85 741.66
  Q 410.74 741.53 411.44 742.41
  Q 411.78 742.84 411.32 743.18
  Q 410.69 743.65 411.34 744.09
  Q 412.44 744.85 413.84 744.90
  Q 414.16 744.91 414.35 745.17
  Q 414.91 745.90 415.80 746.34
  Q 415.96 746.42 415.95 746.24
  Q 415.94 746.05 415.98 745.90
  Q 416.10 745.48 416.41 745.79
  Q 417.50 746.89 419.04 747.18
  Q 419.49 747.27 419.85 747.49
  Q 420.32 747.78 420.37 748.34
  Q 420.41 748.79 420.83 748.96
  Q 422.95 749.78 424.29 751.54
  Q 425.41 753.02 426.84 754.18
  Q 428.63 755.63 430.23 757.21
  Q 430.51 757.49 430.51 757.88
  Q 430.51 758.01 430.56 758.14
  Q 430.70 758.53 431.04 758.77
  Q 432.50 759.78 432.86 761.59
  Q 432.96 762.05 433.41 761.92
  Q 434.48 761.63 435.51 762.02
  Q 435.94 762.19 435.48 762.24
  Q 435.26 762.26 435.01 762.26
  Q 434.80 762.25 434.88 762.44
  Q 435.03 762.77 434.68 762.81
  A 0.04 0.04 0.0 0 0 434.68 762.88
  Q 436.10 763.20 437.63 763.30
  Q 437.69 763.30 437.70 763.36
  Q 437.71 763.41 437.68 763.46
  Q 437.65 763.51 437.59 763.50
  Q 435.52 763.37 433.52 763.62"
/>
<path stroke="#b6ddf3" d="
  M 416.99 569.97
  Q 417.14 583.08 417.71 595.50
  Q 417.84 598.30 417.17 603.05"
/>
<path stroke="#0f112c" stroke-opacity="0.886" d="
  M 55.90 966.31
  Q 55.92 965.67 56.17 965.08
  Q 59.55 957.20 62.76 949.59
  A 1.12 1.12 0.0 0 0 61.74 948.03
  L 49.03 947.98
  A 2.02 2.01 11.4 0 0 47.17 949.21
  L 35.02 977.92
  A 2.05 2.04 -78.5 0 0 36.90 980.77
  L 56.38 980.77
  A 1.12 1.11 -0.0 0 1 57.50 981.88
  L 57.53 987.92
  A 0.99 0.98 8.4 0 0 58.24 988.86
  Q 59.55 989.24 60.08 988.02
  Q 64.07 978.89 68.45 968.87
  A 0.99 0.98 -78.2 0 0 67.55 967.49
  L 57.04 967.49
  A 1.15 1.14 1.2 0 1 55.90 966.31"
/>
<path stroke="#0f112c" stroke-opacity="0.886" d="
  M 79.24 961.38
  A 0.62 0.62 0.0 0 1 79.77 962.32
  Q 75.60 969.16 70.48 977.27
  Q 69.70 978.51 70.24 979.83
  Q 70.46 980.37 71.03 980.46
  Q 72.25 980.66 73.58 980.71
  C 85.07 981.06 97.98 976.18 98.60 962.68
  C 98.88 956.49 96.15 952.37 90.88 949.36
  Q 88.24 947.86 82.46 947.91
  Q 77.71 947.95 72.75 948.04
  A 2.59 2.56 -78.4 0 0 70.45 949.57
  L 66.25 959.02
  A 1.67 1.67 0.0 0 0 67.78 961.37
  L 79.24 961.38"
/>
<path stroke="#0f112c" stroke-opacity="0.886" d="
  M 207.7196 953.5614
  A 3.68 3.08 0.8 0 0 204.0830 950.4303
  A 3.68 3.08 0.8 0 0 200.3604 953.4586
  A 3.68 3.08 0.8 0 0 203.9970 956.5897
  A 3.68 3.08 0.8 0 0 207.7196 953.5614"
/>
<path stroke="#0f112c" stroke-opacity="0.886" d="
  M 268.95 956.36
  C 272.80 955.10 270.13 949.25 265.88 950.90
  Q 262.66 952.14 264.06 955.02
  A 1.72 1.72 0.0 0 0 264.76 955.78
  L 265.35 956.13
  Q 266.00 956.51 265.31 956.79
  C 263.80 957.41 264.29 958.82 264.27 960.11
  Q 264.16 966.02 264.30 971.67
  Q 264.33 972.55 265.20 972.53
  L 269.69 972.41
  A 0.85 0.84 89.3 0 0 270.51 971.56
  L 270.53 957.97
  Q 270.53 957.39 269.96 957.28
  L 268.99 957.09
  Q 267.57 956.81 268.95 956.36"
/>
<path stroke="#0f112c" stroke-opacity="0.886" d="
  M 226.02 968.54
  Q 224.62 965.04 227.63 961.75
  A 1.76 1.73 72.9 0 0 228.07 960.90
  Q 228.40 959.23 228.25 957.51
  Q 228.20 957.01 228.39 956.55
  Q 229.32 954.27 228.76 951.95
  Q 228.63 951.39 228.06 951.35
  Q 222.60 950.94 221.00 954.74
  Q 220.36 956.28 219.50 957.55
  Q 218.31 959.31 218.89 961.49
  Q 219.01 961.98 219.43 962.26
  Q 221.25 963.45 221.08 966.07
  Q 220.91 968.81 220.73 971.32
  Q 220.62 972.78 222.08 972.76
  L 225.72 972.71
  Q 226.59 972.70 226.62 971.84
  Q 226.67 970.16 226.02 968.54"
/>
<path stroke="#0f112c" stroke-opacity="0.886" d="
  M 209.51 962.62
  A 1.19 1.18 17.7 0 1 209.98 963.52
  L 210.23 971.14
  Q 210.28 972.74 211.89 972.73
  L 214.46 972.72
  Q 216.04 972.71 215.80 971.14
  Q 215.18 966.98 216.39 963.26
  Q 216.53 962.82 216.99 962.70
  L 218.08 962.40
  Q 218.65 962.25 218.54 961.67
  L 217.73 957.61
  Q 217.63 957.13 217.84 956.68
  Q 218.81 954.56 218.33 952.01
  Q 218.24 951.50 217.72 951.44
  Q 211.46 950.70 210.05 956.19
  C 209.89 956.81 209.49 957.21 208.92 957.45
  Q 208.38 957.67 208.38 958.25
  L 208.38 961.21
  A 1.12 1.10 -72.0 0 0 208.82 962.10
  L 209.51 962.62"
/>
<path stroke="#0f112c" stroke-opacity="0.886" d="
  M 181.00 954.73
  L 181.06 971.57
  A 1.19 1.19 0.0 0 0 182.25 972.76
  L 189.14 972.73
  A 10.12 9.14 -0.2 0 0 199.23 963.56
  L 199.23 962.62
  A 10.12 9.14 -0.2 0 0 189.08 953.51
  L 182.19 953.54
  A 1.19 1.19 0.0 0 0 181.00 954.73"
/>
<path stroke="#0f112c" stroke-opacity="0.886" d="
  M 112.11 966.41
  Q 111.99 966.38 111.88 966.30
  A 0.02 0.02 0.0 0 0 111.85 966.31
  Q 111.40 969.28 111.66 971.64
  A 0.85 0.84 84.0 0 0 112.57 972.38
  Q 116.69 972.04 121.44 972.73
  A 1.15 1.15 0.0 0 0 122.73 971.37
  L 122.36 969.46
  A 1.13 1.12 84.1 0 0 121.25 968.55
  Q 119.72 968.57 118.30 969.13
  A 1.51 1.51 0.0 0 1 116.27 967.99
  Q 115.33 962.90 115.65 957.14
  Q 115.67 956.71 115.89 956.33
  C 116.44 955.38 116.09 954.19 114.96 953.85
  Q 113.42 953.38 112.30 954.11
  Q 111.86 954.40 111.92 954.92
  Q 112.17 956.82 112.03 958.66
  Q 111.88 960.50 112.17 962.28
  Q 112.49 964.24 112.38 966.22
  Q 112.36 966.48 112.11 966.41"
/>
<path stroke="#0f112c" stroke-opacity="0.886" d="
  M 151.04 971.81
  Q 151.09 973.11 150.13 973.88
  A 1.65 1.64 41.2 0 1 148.26 974.00
  Q 145.49 972.33 141.81 973.24
  A 0.79 0.79 0.0 0 0 141.22 974.10
  C 141.64 977.46 145.10 979.32 148.22 979.59
  C 155.76 980.24 157.68 975.48 157.47 968.70
  Q 157.31 963.63 157.40 958.26
  Q 157.42 957.39 156.56 957.25
  Q 153.29 956.73 150.80 957.75
  Q 150.38 957.93 149.95 957.78
  C 145.34 956.24 141.29 958.04 140.83 962.89
  C 140.33 968.21 141.52 972.67 148.01 972.34
  C 148.95 972.29 149.56 971.79 150.36 971.40
  Q 151.01 971.08 151.04 971.81"
/>
<path stroke="#0f112c" stroke-opacity="0.886" d="
  M 207.2214 958.0530
  A 0.99 0.99 0.0 0 0 206.2228 957.0717
  L 201.9630 957.1089
  A 0.99 0.99 0.0 0 0 200.9817 958.1075
  L 201.0986 971.5070
  A 0.99 0.99 0.0 0 0 202.0972 972.4883
  L 206.3570 972.4511
  A 0.99 0.99 0.0 0 0 207.3383 971.4525
  L 207.2214 958.0530"
/>
<path stroke="#0f112c" stroke-opacity="0.886" d="
  M 235.95 959.12
  Q 236.37 956.92 234.14 957.06
  L 231.77 957.22
  Q 230.03 957.33 230.21 959.07
  Q 230.61 962.98 230.30 966.74
  C 229.91 971.50 234.76 974.35 238.64 971.59
  Q 239.80 970.76 240.54 971.98
  A 1.15 1.14 -16.2 0 0 241.53 972.52
  L 245.18 972.43
  A 1.10 1.10 0.0 0 0 246.25 971.33
  L 246.25 958.44
  Q 246.25 957.13 244.94 957.15
  L 241.74 957.17
  Q 240.17 957.18 240.22 958.76
  L 240.45 965.29
  A 2.03 2.02 -7.2 0 1 238.85 967.34
  C 234.48 968.30 235.49 961.49 235.95 959.12"
/>
<path stroke="#0f112c" stroke-opacity="0.886" d="
  M 255.66 967.96
  Q 254.46 968.07 253.70 967.29
  Q 253.31 966.90 252.75 966.91
  L 248.79 966.98
  Q 248.24 966.99 248.23 967.54
  C 248.11 972.65 255.36 973.26 258.90 972.15
  C 262.78 970.93 264.22 966.11 260.11 963.85
  C 259.67 963.61 259.08 963.51 258.60 963.31
  Q 257.68 962.92 258.68 962.89
  L 261.49 962.80
  Q 262.48 962.77 262.23 961.81
  C 260.95 956.99 255.48 956.12 251.44 957.86
  C 248.24 959.24 247.14 964.08 250.88 965.80
  Q 252.91 966.74 255.37 966.88
  Q 255.79 966.90 256.01 967.29
  Q 256.37 967.90 255.66 967.96"
/>
<path stroke="#0f112c" stroke-opacity="0.886" d="
  M 126.2605 970.6300
  A 7.99 7.81 135.2 0 0 137.4332 970.5417
  A 7.99 7.81 135.2 0 0 137.5995 959.3700
  A 7.99 7.81 135.2 0 0 126.4268 959.4583
  A 7.99 7.81 135.2 0 0 126.2605 970.6300"
/>
<path stroke="#0f112c" stroke-opacity="0.886" d="
  M 174.7268 964.0103
  A 7.02 7.02 0.0 0 0 167.5136 957.1890
  L 165.7942 957.2370
  A 7.02 7.02 0.0 0 0 158.9730 964.4503
  L 159.0132 965.8897
  A 7.02 7.02 0.0 0 0 166.2264 972.7110
  L 167.9458 972.6630
  A 7.02 7.02 0.0 0 0 174.7670 965.4497
  L 174.7268 964.0103"
/>
<path stroke="#0f112c" stroke-opacity="0.886" d="
  M 287.78 964.92
  A 7.88 7.88 0.0 0 0 279.90 957.04
  A 7.88 7.88 0.0 0 0 272.02 964.92
  A 7.88 7.88 0.0 0 0 279.90 972.80
  A 7.88 7.88 0.0 0 0 287.78 964.92"
/>
<path stroke="#0f112c" stroke-opacity="0.886" d="
  M 296.02 962.05
  Q 297.68 961.21 299.76 961.48
  Q 300.26 961.55 300.43 962.01
  C 301.31 964.45 301.24 967.47 300.92 970.03
  Q 300.67 972.03 302.69 972.06
  L 303.65 972.08
  Q 305.52 972.11 305.45 970.24
  Q 305.31 966.57 305.41 962.59
  C 305.47 960.42 304.26 958.48 302.11 958.00
  C 299.44 957.41 297.88 959.87 295.10 958.19
  Q 293.42 957.18 291.08 957.47
  Q 290.63 957.53 290.56 957.97
  Q 290.05 961.31 290.78 964.50
  Q 291.14 966.05 290.64 970.99
  Q 290.48 972.57 292.07 972.55
  L 293.93 972.52
  Q 295.53 972.50 295.40 970.91
  Q 295.08 967.03 295.39 963.00
  A 1.17 1.17 0.0 0 1 296.02 962.05"
/>
<path stroke="#0f112c" stroke-opacity="0.886" d="
  M 317.41 971.40
  Q 319.70 972.28 321.22 972.17
  Q 324.66 971.93 325.99 968.41
  A 0.55 0.55 0.0 0 0 325.61 967.68
  Q 322.86 966.98 320.55 968.04
  Q 319.99 968.29 319.53 967.89
  Q 317.91 966.49 319.37 964.77
  A 1.95 1.95 0.0 0 1 321.70 964.27
  Q 323.46 965.11 325.28 965.17
  Q 326.01 965.20 325.79 964.50
  C 324.87 961.54 321.03 960.37 318.41 961.07
  Q 315.82 961.77 315.26 963.98
  Q 314.54 966.85 315.26 969.26
  Q 315.71 970.74 317.41 971.40"
/>
<path stroke="#0f112c" stroke-opacity="0.886" d="
  M 339.2284 966.3420
  A 4.62 4.62 0.0 0 0 334.9420 961.4110
  L 332.4082 961.2338
  A 4.62 4.62 0.0 0 0 327.4771 965.5203
  L 327.4116 966.4580
  A 4.62 4.62 0.0 0 0 331.6980 971.3890
  L 334.2318 971.5662
  A 4.62 4.62 0.0 0 0 339.1629 967.2797
  L 339.2284 966.3420"
/>
<path stroke="#0f112c" stroke-opacity="0.886" d="
  M 358.31 962.70
  Q 359.34 966.48 358.58 970.23
  Q 358.47 970.78 358.76 971.28
  Q 359.13 971.91 360.02 971.72
  A 1.16 1.16 0.0 0 0 360.91 970.28
  Q 360.12 967.39 360.37 963.95
  A 1.86 1.83 29.6 0 0 360.04 962.78
  Q 359.08 961.43 357.56 961.67
  Q 356.84 961.78 357.30 962.35
  Q 357.53 962.64 357.87 962.49
  Q 358.21 962.34 358.31 962.70"
/>
<path stroke="#0f112c" stroke-opacity="0.886" d="
  M 350.60 964.06
  Q 350.51 964.47 350.96 964.60
  Q 351.45 964.74 351.44 965.25
  L 351.32 970.80
  Q 351.31 971.43 351.93 971.48
  L 352.23 971.51
  A 0.37 0.36 0.7 0 0 352.63 971.13
  L 352.35 965.07
  Q 352.33 964.71 352.67 964.58
  L 356.51 963.02
  Q 356.69 962.95 356.64 962.75
  L 356.53 962.31
  Q 356.47 962.06 356.23 962.15
  C 355.30 962.50 354.19 963.32 353.30 963.44
  Q 352.66 963.52 352.15 963.17
  C 350.51 962.09 347.69 962.23 345.85 962.69
  Q 345.55 962.77 345.62 963.07
  L 345.73 963.50
  Q 345.78 963.71 346.00 963.69
  L 349.98 963.35
  Q 350.78 963.28 350.60 964.06"
/>
<path stroke="#0f112c" stroke-opacity="0.886" d="
  M 312.3647 971.3343
  A 1.46 1.46 0.0 0 0 312.3034 969.2705
  L 311.4592 968.4750
  A 1.46 1.46 0.0 0 0 309.3954 968.5362
  L 308.9153 969.0457
  A 1.46 1.46 0.0 0 0 308.9766 971.1095
  L 309.8208 971.9050
  A 1.46 1.46 0.0 0 0 311.8846 971.8438
  L 312.3647 971.3343"
/>
</g>
<path fill="#70c0ed" d="
  M 581.88 408.71
  L 581.97 410.90
  Q 582.00 411.42 582.49 411.60
  Q 584.60 412.37 586.50 412.25
  Q 599.45 411.45 611.09 412.32
  C 610.34 415.55 608.60 418.87 608.58 421.83
  C 608.49 433.65 622.40 438.12 631.99 436.29
  C 646.42 433.54 655.05 419.85 657.90 405.92
  Q 661.21 389.75 653.77 373.01
  Q 648.86 361.96 639.76 352.49
  Q 617.85 329.69 586.22 324.20
  Q 572.49 321.82 563.61 321.82
  Q 515.37 321.85 460.58 321.72
  Q 447.09 321.69 438.25 322.51
  Q 416.71 324.51 398.80 336.16
  C 383.28 346.26 372.87 360.01 365.82 377.43
  Q 361.57 387.90 361.04 401.51
  Q 360.23 422.20 367.32 439.76
  Q 366.36 440.64 365.67 441.69
  Q 364.93 442.82 362.54 442.48
  Q 362.05 442.41 361.61 442.64
  Q 361.23 442.83 360.75 442.83
  Q 351.21 442.79 344.79 442.24
  Q 336.14 412.22 344.02 382.25
  Q 351.65 353.22 374.39 331.65
  Q 400.34 307.02 434.17 301.48
  Q 444.64 299.77 461.26 299.80
  Q 503.66 299.88 538.00 300.06
  Q 549.42 300.13 561.73 300.65
  C 603.69 302.42 644.87 318.60 667.56 355.58
  C 675.61 368.69 680.17 382.27 679.99 397.75
  C 679.69 423.63 665.49 447.08 640.52 455.74
  C 624.55 461.28 606.37 456.59 594.35 444.66
  Q 583.17 433.55 580.97 417.77
  Q 580.60 415.11 581.88 408.71
  Z"
/>
<path fill="#111331" d="
  M 611.09 412.32
  Q 614.77 407.09 613.49 402.02
  Q 610.92 391.86 601.44 381.73
  C 587.64 366.99 568.43 361.86 548.24 362.01
  C 527.19 362.17 506.54 362.48 485.74 362.02
  Q 468.86 361.64 456.00 361.82
  C 438.58 362.05 421.84 369.86 412.11 384.48
  Q 408.15 390.43 406.62 396.21
  C 400.89 417.88 409.34 438.78 427.56 451.30
  Q 437.29 457.98 451.41 464.61
  Q 505.30 489.91 562.10 515.87
  C 575.53 522.00 589.68 528.96 601.84 535.68
  C 631.60 552.15 654.40 580.68 662.47 614.01
  Q 664.74 623.36 664.79 634.66
  Q 665.84 671.23 644.96 699.74
  Q 630.79 719.09 610.25 730.03
  Q 590.87 740.35 567.52 742.88
  Q 553.77 744.37 545.50 744.31
  Q 489.90 743.93 451.00 744.18
  Q 429.88 744.31 410.56 738.79
  Q 408.44 737.77 406.28 736.96
  C 387.85 730.03 370.14 715.84 365.04 696.26
  C 360.87 680.29 366.04 664.10 380.48 655.32
  Q 387.71 650.93 396.86 652.17
  C 406.85 653.52 412.68 661.04 413.23 670.84
  Q 413.47 675.02 414.16 679.08
  C 416.78 694.26 435.21 703.84 449.00 705.77
  Q 455.03 706.61 469.02 706.28
  Q 506.99 706.42 545.00 706.23
  Q 557.11 706.17 565.51 704.74
  C 587.81 700.94 608.61 686.21 618.29 665.13
  C 632.21 637.30 622.92 605.64 601.18 584.98
  C 590.73 575.04 577.48 567.39 563.92 561.07
  C 541.36 550.56 519.47 540.01 497.21 530.03
  Q 466.57 516.30 435.95 502.44
  C 424.55 497.28 413.47 491.78 403.23 485.05
  C 386.68 474.18 375.42 457.63 367.32 439.76
  Q 360.23 422.20 361.04 401.51
  Q 361.57 387.90 365.82 377.43
  C 372.87 360.01 383.28 346.26 398.80 336.16
  Q 416.71 324.51 438.25 322.51
  Q 447.09 321.69 460.58 321.72
  Q 515.37 321.85 563.61 321.82
  Q 572.49 321.82 586.22 324.20
  Q 617.85 329.69 639.76 352.49
  Q 648.86 361.96 653.77 373.01
  Q 661.21 389.75 657.90 405.92
  C 655.05 419.85 646.42 433.54 631.99 436.29
  C 622.40 438.12 608.49 433.65 608.58 421.83
  C 608.60 418.87 610.34 415.55 611.09 412.32
  Z"
/>
<path fill="#fcfaf8" d="
  M 611.09 412.32
  Q 599.45 411.45 586.50 412.25
  Q 584.60 412.37 582.49 411.60
  Q 582.00 411.42 581.97 410.90
  L 581.88 408.71
  Q 580.52 400.91 575.38 396.62
  Q 568.29 390.71 558.50 390.60
  C 528.40 390.27 498.11 390.92 467.82 391.05
  C 457.50 391.09 445.80 388.20 437.88 396.86
  C 433.50 401.65 432.18 408.59 434.21 414.73
  C 436.76 422.44 444.12 427.59 451.47 431.06
  Q 492.46 450.42 535.74 470.93
  C 559.38 482.13 582.90 491.37 605.10 504.47
  Q 623.56 515.37 640.80 532.38
  Q 652.86 544.27 662.10 558.83
  Q 685.10 595.06 683.29 638.76
  Q 679.68 638.97 676.04 638.35
  Q 675.51 638.26 675.00 638.06
  Q 674.41 637.84 673.95 637.78
  Q 668.49 637.12 664.79 634.66
  Q 664.74 623.36 662.47 614.01
  C 654.40 580.68 631.60 552.15 601.84 535.68
  C 589.68 528.96 575.53 522.00 562.10 515.87
  Q 505.30 489.91 451.41 464.61
  Q 437.29 457.98 427.56 451.30
  C 409.34 438.78 400.89 417.88 406.62 396.21
  Q 408.15 390.43 412.11 384.48
  C 421.84 369.86 438.58 362.05 456.00 361.82
  Q 468.86 361.64 485.74 362.02
  C 506.54 362.48 527.19 362.17 548.24 362.01
  C 568.43 361.86 587.64 366.99 601.44 381.73
  Q 610.92 391.86 613.49 402.02
  Q 614.77 407.09 611.09 412.32
  Z"
/>
<path fill="#fcfaf8" d="
  M 367.32 439.76
  C 375.42 457.63 386.68 474.18 403.23 485.05
  C 413.47 491.78 424.55 497.28 435.95 502.44
  Q 466.57 516.30 497.21 530.03
  C 519.47 540.01 541.36 550.56 563.92 561.07
  C 577.48 567.39 590.73 575.04 601.18 584.98
  C 622.92 605.64 632.21 637.30 618.29 665.13
  Q 617.40 665.19 617.80 664.05
  Q 618.10 663.18 618.46 662.33
  Q 618.84 661.45 618.89 660.57
  Q 619.02 658.17 619.17 655.65
  A 0.99 0.98 -64.2 0 0 618.92 654.92
  L 617.25 653.02
  Q 617.06 652.81 616.79 652.72
  Q 614.09 651.92 612.04 650.70
  Q 609.82 649.39 607.55 648.28
  Q 604.75 646.90 602.02 645.46
  Q 601.41 645.13 600.86 645.55
  Q 600.69 645.67 600.50 645.67
  Q 599.77 645.65 599.78 644.92
  L 599.90 639.48
  C 598.60 624.90 590.01 612.16 578.20 603.82
  Q 569.67 597.80 561.31 593.81
  Q 524.88 576.42 479.49 555.02
  C 455.74 543.83 431.67 534.24 409.07 521.42
  Q 392.43 511.98 377.68 497.56
  Q 354.31 474.72 344.79 442.24
  Q 351.21 442.79 360.75 442.83
  Q 361.23 442.83 361.61 442.64
  Q 362.05 442.41 362.54 442.48
  Q 364.93 442.82 365.67 441.69
  Q 366.36 440.64 367.32 439.76
  Z"
/>
<path fill="#70c0ed" d="
  M 416.99 569.97
  Q 417.14 583.08 417.71 595.50
  Q 417.84 598.30 417.17 603.05
  Q 414.32 601.66 411.68 599.99
  Q 402.16 593.98 393.66 588.32
  C 387.92 584.49 381.72 579.95 377.07 575.23
  C 370.49 568.54 369.94 558.15 369.86 548.84
  Q 369.75 536.72 369.86 526.99
  Q 369.88 525.33 370.17 523.58
  Q 370.42 522.02 371.00 523.49
  C 374.70 532.97 380.98 540.71 388.61 548.40
  Q 400.06 559.95 416.99 569.97
  Z"
/>
<path fill="#fcfaf8" d="
  M 416.99 569.97
  Q 419.76 571.32 421.76 572.28
  Q 470.24 595.50 519.37 617.54
  C 530.71 622.63 541.20 627.73 552.25 633.13
  Q 561.74 637.76 567.18 643.50
  Q 572.22 648.82 571.50 657.30
  Q 571.04 662.82 565.42 667.52
  Q 561.10 671.12 556.13 668.67
  C 540.73 661.08 524.33 653.05 508.10 645.68
  Q 476.52 631.34 423.91 606.85
  Q 419.44 604.77 417.17 603.05
  Q 417.84 598.30 417.71 595.50
  Q 417.14 583.08 416.99 569.97
  Z"
/>
<path fill="#70c0ed" d="
  M 452.77 678.55
  Q 453.00 680.16 455.29 679.71
  Q 455.64 679.64 455.75 679.98
  Q 455.79 680.12 455.75 680.27
  Q 455.71 680.45 455.54 680.48
  Q 455.47 680.49 455.39 680.48
  Q 454.65 680.46 455.33 680.76
  Q 458.80 682.32 458.59 686.30
  Q 458.57 686.75 458.84 687.12
  Q 460.52 689.39 460.97 692.04
  Q 461.46 694.92 462.42 697.89
  Q 462.89 699.31 462.17 700.82
  Q 461.95 701.29 462.36 701.61
  Q 463.11 702.20 462.96 703.30
  Q 462.89 703.84 462.43 703.53
  Q 462.10 703.29 461.97 704.01
  A 1.15 1.14 -80.6 0 0 462.93 705.36
  L 469.02 706.28
  Q 455.03 706.61 449.00 705.77
  C 435.21 703.84 416.78 694.26 414.16 679.08
  Q 413.47 675.02 413.23 670.84
  C 412.68 661.04 406.85 653.52 396.86 652.17
  Q 387.71 650.93 380.48 655.32
  C 366.04 664.10 360.87 680.29 365.04 696.26
  C 370.14 715.84 387.85 730.03 406.28 736.96
  Q 408.44 737.77 410.56 738.79
  Q 411.70 739.72 412.33 741.09
  Q 412.50 741.45 412.13 741.62
  Q 411.99 741.68 411.85 741.66
  Q 410.74 741.53 411.44 742.41
  Q 411.78 742.84 411.32 743.18
  Q 410.69 743.65 411.34 744.09
  Q 412.44 744.85 413.84 744.90
  Q 414.16 744.91 414.35 745.17
  Q 414.91 745.90 415.80 746.34
  Q 415.96 746.42 415.95 746.24
  Q 415.94 746.05 415.98 745.90
  Q 416.10 745.48 416.41 745.79
  Q 417.50 746.89 419.04 747.18
  Q 419.49 747.27 419.85 747.49
  Q 420.32 747.78 420.37 748.34
  Q 420.41 748.79 420.83 748.96
  Q 422.95 749.78 424.29 751.54
  Q 425.41 753.02 426.84 754.18
  Q 428.63 755.63 430.23 757.21
  Q 430.51 757.49 430.51 757.88
  Q 430.51 758.01 430.56 758.14
  Q 430.70 758.53 431.04 758.77
  Q 432.50 759.78 432.86 761.59
  Q 432.96 762.05 433.41 761.92
  Q 434.48 761.63 435.51 762.02
  Q 435.94 762.19 435.48 762.24
  Q 435.26 762.26 435.01 762.26
  Q 434.80 762.25 434.88 762.44
  Q 435.03 762.77 434.68 762.81
  A 0.04 0.04 0.0 0 0 434.68 762.88
  Q 436.10 763.20 437.63 763.30
  Q 437.69 763.30 437.70 763.36
  Q 437.71 763.41 437.68 763.46
  Q 437.65 763.51 437.59 763.50
  Q 435.52 763.37 433.52 763.62
  C 409.15 761.95 384.60 753.95 366.65 737.24
  C 350.62 722.31 341.21 701.51 342.60 679.40
  C 344.04 656.56 360.07 635.51 382.71 630.14
  C 406.45 624.51 434.26 635.31 441.84 659.72
  C 442.97 663.39 443.38 667.27 444.20 671.04
  Q 445.58 677.43 452.77 678.55
  Z"
/>
<path fill="#70c0ed" d="
  M 664.79 634.66
  Q 668.49 637.12 673.95 637.78
  Q 674.41 637.84 675.00 638.06
  Q 675.51 638.26 676.04 638.35
  Q 679.68 638.97 683.29 638.76
  Q 682.88 667.10 670.38 692.70
  Q 663.85 706.09 654.23 716.96
  C 633.92 739.90 606.15 759.61 574.69 762.35
  Q 560.12 763.62 545.50 763.59
  Q 501.88 763.49 454.25 764.16
  Q 443.89 764.31 433.52 763.62
  Q 435.52 763.37 437.59 763.50
  Q 437.65 763.51 437.68 763.46
  Q 437.71 763.41 437.70 763.36
  Q 437.69 763.30 437.63 763.30
  Q 436.10 763.20 434.68 762.88
  A 0.04 0.04 0.0 0 1 434.68 762.81
  Q 435.03 762.77 434.88 762.44
  Q 434.80 762.25 435.01 762.26
  Q 435.26 762.26 435.48 762.24
  Q 435.94 762.19 435.51 762.02
  Q 434.48 761.63 433.41 761.92
  Q 432.96 762.05 432.86 761.59
  Q 432.50 759.78 431.04 758.77
  Q 430.70 758.53 430.56 758.14
  Q 430.51 758.01 430.51 757.88
  Q 430.51 757.49 430.23 757.21
  Q 428.63 755.63 426.84 754.18
  Q 425.41 753.02 424.29 751.54
  Q 422.95 749.78 420.83 748.96
  Q 420.41 748.79 420.37 748.34
  Q 420.32 747.78 419.85 747.49
  Q 419.49 747.27 419.04 747.18
  Q 417.50 746.89 416.41 745.79
  Q 416.10 745.48 415.98 745.90
  Q 415.94 746.05 415.95 746.24
  Q 415.96 746.42 415.80 746.34
  Q 414.91 745.90 414.35 745.17
  Q 414.16 744.91 413.84 744.90
  Q 412.44 744.85 411.34 744.09
  Q 410.69 743.65 411.32 743.18
  Q 411.78 742.84 411.44 742.41
  Q 410.74 741.53 411.85 741.66
  Q 411.99 741.68 412.13 741.62
  Q 412.50 741.45 412.33 741.09
  Q 411.70 739.72 410.56 738.79
  Q 429.88 744.31 451.00 744.18
  Q 489.90 743.93 545.50 744.31
  Q 553.77 744.37 567.52 742.88
  Q 590.87 740.35 610.25 730.03
  Q 630.79 719.09 644.96 699.74
  Q 665.84 671.23 664.79 634.66
  Z"
/>
<path fill="#70c0ed" d="
  M 599.90 639.48
  L 599.78 644.92
  Q 599.77 645.65 600.50 645.67
  Q 600.69 645.67 600.86 645.55
  Q 601.41 645.13 602.02 645.46
  Q 604.75 646.90 607.55 648.28
  Q 609.82 649.39 612.04 650.70
  Q 614.09 651.92 616.79 652.72
  Q 617.06 652.81 617.25 653.02
  L 618.92 654.92
  A 0.99 0.98 -64.2 0 1 619.17 655.65
  Q 619.02 658.17 618.89 660.57
  Q 618.84 661.45 618.46 662.33
  Q 618.10 663.18 617.80 664.05
  Q 617.40 665.19 618.29 665.13
  C 608.61 686.21 587.81 700.94 565.51 704.74
  Q 557.11 706.17 545.00 706.23
  Q 506.99 706.42 469.02 706.28
  L 462.93 705.36
  A 1.15 1.14 -80.6 0 1 461.97 704.01
  Q 462.10 703.29 462.43 703.53
  Q 462.89 703.84 462.96 703.30
  Q 463.11 702.20 462.36 701.61
  Q 461.95 701.29 462.17 700.82
  Q 462.89 699.31 462.42 697.89
  Q 461.46 694.92 460.97 692.04
  Q 460.52 689.39 458.84 687.12
  Q 458.57 686.75 458.59 686.30
  Q 458.80 682.32 455.33 680.76
  Q 454.65 680.46 455.39 680.48
  Q 455.47 680.49 455.54 680.48
  Q 455.71 680.45 455.75 680.27
  Q 455.79 680.12 455.75 679.98
  Q 455.64 679.64 455.29 679.71
  Q 453.00 680.16 452.77 678.55
  Q 458.99 679.64 465.50 679.68
  Q 509.45 679.95 549.50 679.97
  C 560.15 679.97 571.35 679.16 580.29 673.05
  Q 588.96 667.12 593.74 659.87
  Q 599.55 651.05 599.90 639.48
  Z"
/>
<path fill="#0c0e25" fill-opacity="0.773" d="
  M 55.90 966.31
  A 1.15 1.14 1.2 0 0 57.04 967.49
  L 67.55 967.49
  A 0.99 0.98 -78.2 0 1 68.45 968.87
  Q 64.07 978.89 60.08 988.02
  Q 59.55 989.24 58.24 988.86
  A 0.99 0.98 8.4 0 1 57.53 987.92
  L 57.50 981.88
  A 1.12 1.11 -0.0 0 0 56.38 980.77
  L 36.90 980.77
  A 2.05 2.04 -78.5 0 1 35.02 977.92
  L 47.17 949.21
  A 2.02 2.01 11.4 0 1 49.03 947.98
  L 61.74 948.03
  A 1.12 1.12 0.0 0 1 62.76 949.59
  Q 59.55 957.20 56.17 965.08
  Q 55.92 965.67 55.90 966.31
  Z"
/>
<path fill="#0c0e25" fill-opacity="0.773" d="
  M 79.24 961.38
  L 67.78 961.37
  A 1.67 1.67 0.0 0 1 66.25 959.02
  L 70.45 949.57
  A 2.59 2.56 -78.4 0 1 72.75 948.04
  Q 77.71 947.95 82.46 947.91
  Q 88.24 947.86 90.88 949.36
  C 96.15 952.37 98.88 956.49 98.60 962.68
  C 97.98 976.18 85.07 981.06 73.58 980.71
  Q 72.25 980.66 71.03 980.46
  Q 70.46 980.37 70.24 979.83
  Q 69.70 978.51 70.48 977.27
  Q 75.60 969.16 79.77 962.32
  A 0.62 0.62 0.0 0 0 79.24 961.38
  Z"
/>
<path fill="#0c0e25" fill-opacity="0.773" d="
  M 207.7196 953.5614
  A 3.68 3.08 0.8 0 1 203.9970 956.5897
  A 3.68 3.08 0.8 0 1 200.3604 953.4586
  A 3.68 3.08 0.8 0 1 204.0830 950.4303
  A 3.68 3.08 0.8 0 1 207.7196 953.5614
  Z"
/>
<path fill="#0c0e25" fill-opacity="0.773" d="
  M 268.99 957.09
  L 269.96 957.28
  Q 270.53 957.39 270.53 957.97
  L 270.51 971.56
  A 0.85 0.84 89.3 0 1 269.69 972.41
  L 265.20 972.53
  Q 264.33 972.55 264.30 971.67
  Q 264.16 966.02 264.27 960.11
  C 264.29 958.82 263.80 957.41 265.31 956.79
  Q 266.00 956.51 265.35 956.13
  L 264.76 955.78
  A 1.72 1.72 0.0 0 1 264.06 955.02
  Q 262.66 952.14 265.88 950.90
  C 270.13 949.25 272.80 955.10 268.95 956.36
  Q 267.57 956.81 268.99 957.09
  Z"
/>
<path fill="#0c0e25" fill-opacity="0.773" d="
  M 226.02 968.54
  Q 226.67 970.16 226.62 971.84
  Q 226.59 972.70 225.72 972.71
  L 222.08 972.76
  Q 220.62 972.78 220.73 971.32
  Q 220.91 968.81 221.08 966.07
  Q 221.25 963.45 219.43 962.26
  Q 219.01 961.98 218.89 961.49
  Q 218.31 959.31 219.50 957.55
  Q 220.36 956.28 221.00 954.74
  Q 222.60 950.94 228.06 951.35
  Q 228.63 951.39 228.76 951.95
  Q 229.32 954.27 228.39 956.55
  Q 228.20 957.01 228.25 957.51
  Q 228.40 959.23 228.07 960.90
  A 1.76 1.73 72.9 0 1 227.63 961.75
  Q 224.62 965.04 226.02 968.54
  Z"
/>
<path fill="#0c0e25" fill-opacity="0.773" d="
  M 209.51 962.62
  L 208.82 962.10
  A 1.12 1.10 -72.0 0 1 208.38 961.21
  L 208.38 958.25
  Q 208.38 957.67 208.92 957.45
  C 209.49 957.21 209.89 956.81 210.05 956.19
  Q 211.46 950.70 217.72 951.44
  Q 218.24 951.50 218.33 952.01
  Q 218.81 954.56 217.84 956.68
  Q 217.63 957.13 217.73 957.61
  L 218.54 961.67
  Q 218.65 962.25 218.08 962.40
  L 216.99 962.70
  Q 216.53 962.82 216.39 963.26
  Q 215.18 966.98 215.80 971.14
  Q 216.04 972.71 214.46 972.72
  L 211.89 972.73
  Q 210.28 972.74 210.23 971.14
  L 209.98 963.52
  A 1.19 1.18 17.7 0 0 209.51 962.62
  Z"
/>
<path fill="#0c0e25" fill-opacity="0.773" d="
  M 181.00 954.73
  A 1.19 1.19 0.0 0 1 182.19 953.54
  L 189.08 953.51
  A 10.12 9.14 -0.2 0 1 199.23 962.62
  L 199.23 963.56
  A 10.12 9.14 -0.2 0 1 189.14 972.73
  L 182.25 972.76
  A 1.19 1.19 0.0 0 1 181.06 971.57
  L 181.00 954.73
  Z"
/>
<path fill="#0c0e25" fill-opacity="0.773" d="
  M 112.38 966.22
  Q 112.49 964.24 112.17 962.28
  Q 111.88 960.50 112.03 958.66
  Q 112.17 956.82 111.92 954.92
  Q 111.86 954.40 112.30 954.11
  Q 113.42 953.38 114.96 953.85
  C 116.09 954.19 116.44 955.38 115.89 956.33
  Q 115.67 956.71 115.65 957.14
  Q 115.33 962.90 116.27 967.99
  A 1.51 1.51 0.0 0 0 118.30 969.13
  Q 119.72 968.57 121.25 968.55
  A 1.13 1.12 84.1 0 1 122.36 969.46
  L 122.73 971.37
  A 1.15 1.15 0.0 0 1 121.44 972.73
  Q 116.69 972.04 112.57 972.38
  A 0.85 0.84 84.0 0 1 111.66 971.64
  Q 111.40 969.28 111.85 966.31
  A 0.02 0.02 0.0 0 1 111.88 966.30
  Q 111.99 966.38 112.11 966.41
  Q 112.36 966.48 112.38 966.22
  Z"
/>
<path fill="#0c0e25" fill-opacity="0.773" d="
  M 150.36 971.40
  C 149.56 971.79 148.95 972.29 148.01 972.34
  C 141.52 972.67 140.33 968.21 140.83 962.89
  C 141.29 958.04 145.34 956.24 149.95 957.78
  Q 150.38 957.93 150.80 957.75
  Q 153.29 956.73 156.56 957.25
  Q 157.42 957.39 157.40 958.26
  Q 157.31 963.63 157.47 968.70
  C 157.68 975.48 155.76 980.24 148.22 979.59
  C 145.10 979.32 141.64 977.46 141.22 974.10
  A 0.79 0.79 0.0 0 1 141.81 973.24
  Q 145.49 972.33 148.26 974.00
  A 1.65 1.64 41.2 0 0 150.13 973.88
  Q 151.09 973.11 151.04 971.81
  Q 151.01 971.08 150.36 971.40
  Z"
/>
<path fill="#0c0e25" fill-opacity="0.773" d="
  M 207.3383 971.4525
  A 0.99 0.99 0.0 0 1 206.3570 972.4511
  L 202.0972 972.4883
  A 0.99 0.99 0.0 0 1 201.0986 971.5070
  L 200.9817 958.1075
  A 0.99 0.99 0.0 0 1 201.9630 957.1089
  L 206.2228 957.0717
  A 0.99 0.99 0.0 0 1 207.2214 958.0530
  L 207.3383 971.4525
  Z"
/>
<path fill="#0c0e25" fill-opacity="0.773" d="
  M 235.95 959.12
  C 235.49 961.49 234.48 968.30 238.85 967.34
  A 2.03 2.02 -7.2 0 0 240.45 965.29
  L 240.22 958.76
  Q 240.17 957.18 241.74 957.17
  L 244.94 957.15
  Q 246.25 957.13 246.25 958.44
  L 246.25 971.33
  A 1.10 1.10 0.0 0 1 245.18 972.43
  L 241.53 972.52
  A 1.15 1.14 -16.2 0 1 240.54 971.98
  Q 239.80 970.76 238.64 971.59
  C 234.76 974.35 229.91 971.50 230.30 966.74
  Q 230.61 962.98 230.21 959.07
  Q 230.03 957.33 231.77 957.22
  L 234.14 957.06
  Q 236.37 956.92 235.95 959.12
  Z"
/>
<path fill="#0c0e25" fill-opacity="0.773" d="
  M 256.01 967.29
  Q 255.79 966.90 255.37 966.88
  Q 252.91 966.74 250.88 965.80
  C 247.14 964.08 248.24 959.24 251.44 957.86
  C 255.48 956.12 260.95 956.99 262.23 961.81
  Q 262.48 962.77 261.49 962.80
  L 258.68 962.89
  Q 257.68 962.92 258.60 963.31
  C 259.08 963.51 259.67 963.61 260.11 963.85
  C 264.22 966.11 262.78 970.93 258.90 972.15
  C 255.36 973.26 248.11 972.65 248.23 967.54
  Q 248.24 966.99 248.79 966.98
  L 252.75 966.91
  Q 253.31 966.90 253.70 967.29
  Q 254.46 968.07 255.66 967.96
  Q 256.37 967.90 256.01 967.29
  Z"
/>
<path fill="#0c0e25" fill-opacity="0.773" d="
  M 126.2605 970.6300
  A 7.99 7.81 135.2 0 1 126.4268 959.4583
  A 7.99 7.81 135.2 0 1 137.5995 959.3700
  A 7.99 7.81 135.2 0 1 137.4332 970.5417
  A 7.99 7.81 135.2 0 1 126.2605 970.6300
  Z"
/>
<path fill="#0c0e25" fill-opacity="0.773" d="
  M 174.7670 965.4497
  A 7.02 7.02 0.0 0 1 167.9458 972.6630
  L 166.2264 972.7110
  A 7.02 7.02 0.0 0 1 159.0132 965.8897
  L 158.9730 964.4503
  A 7.02 7.02 0.0 0 1 165.7942 957.2370
  L 167.5136 957.1890
  A 7.02 7.02 0.0 0 1 174.7268 964.0103
  L 174.7670 965.4497
  Z"
/>
<path fill="#0c0e25" fill-opacity="0.773" d="
  M 287.78 964.92
  A 7.88 7.88 0.0 0 1 279.90 972.80
  A 7.88 7.88 0.0 0 1 272.02 964.92
  A 7.88 7.88 0.0 0 1 279.90 957.04
  A 7.88 7.88 0.0 0 1 287.78 964.92
  Z"
/>
<path fill="#0c0e25" fill-opacity="0.773" d="
  M 296.02 962.05
  A 1.17 1.17 0.0 0 0 295.39 963.00
  Q 295.08 967.03 295.40 970.91
  Q 295.53 972.50 293.93 972.52
  L 292.07 972.55
  Q 290.48 972.57 290.64 970.99
  Q 291.14 966.05 290.78 964.50
  Q 290.05 961.31 290.56 957.97
  Q 290.63 957.53 291.08 957.47
  Q 293.42 957.18 295.10 958.19
  C 297.88 959.87 299.44 957.41 302.11 958.00
  C 304.26 958.48 305.47 960.42 305.41 962.59
  Q 305.31 966.57 305.45 970.24
  Q 305.52 972.11 303.65 972.08
  L 302.69 972.06
  Q 300.67 972.03 300.92 970.03
  C 301.24 967.47 301.31 964.45 300.43 962.01
  Q 300.26 961.55 299.76 961.48
  Q 297.68 961.21 296.02 962.05
  Z"
/>
<path fill="#111331" d="
  M 187.40 959.84
  A 0.63 0.63 0.0 0 1 188.03 959.21
  L 189.25 959.22
  A 3.57 3.27 0.2 0 1 192.81 962.50
  L 192.81 963.64
  A 3.57 3.27 0.2 0 1 189.23 966.90
  L 188.01 966.89
  A 0.63 0.63 0.0 0 1 187.38 966.26
  L 187.40 959.84
  Z"
/>
<path fill="#0c0e25" fill-opacity="0.773" d="
  M 315.26 969.26
  Q 314.54 966.85 315.26 963.98
  Q 315.82 961.77 318.41 961.07
  C 321.03 960.37 324.87 961.54 325.79 964.50
  Q 326.01 965.20 325.28 965.17
  Q 323.46 965.11 321.70 964.27
  A 1.95 1.95 0.0 0 0 319.37 964.77
  Q 317.91 966.49 319.53 967.89
  Q 319.99 968.29 320.55 968.04
  Q 322.86 966.98 325.61 967.68
  A 0.55 0.55 0.0 0 1 325.99 968.41
  Q 324.66 971.93 321.22 972.17
  Q 319.70 972.28 317.41 971.40
  Q 315.71 970.74 315.26 969.26
  Z"
/>
<path fill="#0c0e25" fill-opacity="0.773" d="
  M 339.1629 967.2797
  A 4.62 4.62 0.0 0 1 334.2318 971.5662
  L 331.6980 971.3890
  A 4.62 4.62 0.0 0 1 327.4116 966.4580
  L 327.4771 965.5203
  A 4.62 4.62 0.0 0 1 332.4082 961.2338
  L 334.9420 961.4110
  A 4.62 4.62 0.0 0 1 339.2284 966.3420
  L 339.1629 967.2797
  Z"
/>
<path fill="#111331" d="
  M 256.89 962.32
  Q 257.61 962.81 256.75 962.91
  Q 255.84 963.01 255.18 962.44
  A 0.54 0.54 0.0 0 1 255.83 961.59
  L 256.89 962.32
  Z"
/>
<path fill="#0c0e25" fill-opacity="0.773" d="
  M 357.87 962.49
  Q 357.53 962.64 357.30 962.35
  Q 356.84 961.78 357.56 961.67
  Q 359.08 961.43 360.04 962.78
  A 1.86 1.83 29.6 0 1 360.37 963.95
  Q 360.12 967.39 360.91 970.28
  A 1.16 1.16 0.0 0 1 360.02 971.72
  Q 359.13 971.91 358.76 971.28
  Q 358.47 970.78 358.58 970.23
  Q 359.34 966.48 358.31 962.70
  Q 358.21 962.34 357.87 962.49
  Z"
/>
<path fill="#111331" d="
  M 279.9831 967.2674
  A 2.43 2.13 99.4 0 1 278.2786 964.5221
  A 2.43 2.13 99.4 0 1 280.7769 962.4726
  A 2.43 2.13 99.4 0 1 282.4814 965.2179
  A 2.43 2.13 99.4 0 1 279.9831 967.2674
  Z"
/>
<path fill="#0c0e25" fill-opacity="0.773" d="
  M 349.98 963.35
  L 346.00 963.69
  Q 345.78 963.71 345.73 963.50
  L 345.62 963.07
  Q 345.55 962.77 345.85 962.69
  C 347.69 962.23 350.51 962.09 352.15 963.17
  Q 352.66 963.52 353.30 963.44
  C 354.19 963.32 355.30 962.50 356.23 962.15
  Q 356.47 962.06 356.53 962.31
  L 356.64 962.75
  Q 356.69 962.95 356.51 963.02
  L 352.67 964.58
  Q 352.33 964.71 352.35 965.07
  L 352.63 971.13
  A 0.37 0.36 0.7 0 1 352.23 971.51
  L 351.93 971.48
  Q 351.31 971.43 351.32 970.80
  L 351.44 965.25
  Q 351.45 964.74 350.96 964.60
  Q 350.51 964.47 350.60 964.06
  Q 350.78 963.28 349.98 963.35
  Z"
/>
<path fill="#111331" d="
  M 130.8404 967.0655
  A 2.35 2.10 106.3 0 1 129.4844 964.2206
  A 2.35 2.10 106.3 0 1 132.1596 962.5545
  A 2.35 2.10 106.3 0 1 133.5156 965.3994
  A 2.35 2.10 106.3 0 1 130.8404 967.0655
  Z"
/>
<path fill="#111331" d="
  M 166.7506 967.1370
  A 2.36 1.72 92.9 0 1 165.1522 964.6930
  A 2.36 1.72 92.9 0 1 166.9894 962.4230
  A 2.36 1.72 92.9 0 1 168.5878 964.8670
  A 2.36 1.72 92.9 0 1 166.7506 967.1370
  Z"
/>
<path fill="#111331" d="
  M 148.9103 967.1389
  A 2.22 1.87 91.8 0 1 147.1109 964.8613
  A 2.22 1.87 91.8 0 1 149.0497 962.7011
  A 2.22 1.87 91.8 0 1 150.8491 964.9787
  A 2.22 1.87 91.8 0 1 148.9103 967.1389
  Z"
/>
<path fill="#111331" d="
  M 332.12 968.64
  A 0.94 0.94 0.0 0 1 331.31 967.59
  L 331.43 966.62
  A 3.44 2.03 -82.7 0 1 333.88 963.46
  L 334.36 963.52
  A 3.44 2.03 -82.7 0 1 335.94 967.19
  L 335.81 968.16
  A 0.94 0.94 0.0 0 1 334.76 968.98
  L 332.12 968.64
  Z"
/>
<path fill="#0c0e25" fill-opacity="0.773" d="
  M 311.8846 971.8438
  A 1.46 1.46 0.0 0 1 309.8208 971.9050
  L 308.9766 971.1095
  A 1.46 1.46 0.0 0 1 308.9153 969.0457
  L 309.3954 968.5362
  A 1.46 1.46 0.0 0 1 311.4592 968.4750
  L 312.3034 969.2705
  A 1.46 1.46 0.0 0 1 312.3647 971.3343
  L 311.8846 971.8438
  Z"
/>
</svg>
